<svg fill="none" height="36" viewBox="0 0 26 36" width="26" xmlns="http://www.w3.org/2000/svg"><g fill="#e08631"><path d="m24.1008 6.09784c-2.2445-3.76137-6.3627-6.09796207-10.7474-6.09796207-2.2455 0-4.45708.61131507-6.39542 1.76770207-5.9198 3.53224-7.862336 11.22232-4.3301 17.14242l9.82652 16.4688c.1912.3204.5368.5166.91.5166.3731 0 .7188-.1962.9098-.5166l9.8276-16.471c2.3511-3.9602 2.3504-8.8687-.001-12.80996zm-1.8199 11.72616-8.9165 14.9438-8.91658-14.9438c-2.93359-4.9165-1.32029-11.30298 3.59619-14.23656 1.60996-.96058 3.44589-1.46846 5.30949-1.46846 3.6425 0 7.0634 1.94072 8.9275 5.06465 1.9529 3.27327 1.9524 7.35117-.0001 10.64037z"/><path d="m13.3618 6.22821c-3.40746 0-6.17967 2.77229-6.17967 6.17989 0 3.4075 2.77221 6.1797 6.17967 6.1797 3.4076 0 6.1798-2.7722 6.1798-6.1797 0-3.4076-2.7722-6.17989-6.1798-6.17989zm0 10.24039c-2.239 0-4.06041-1.8215-4.06041-4.0604 0-2.2391 1.82141-4.06073 4.06041-4.06073 2.2391 0 4.0607 1.82163 4.0607 4.06073 0 2.2388-1.8216 4.0604-4.0607 4.0604z"/></g></svg>