<svg fill="none" height="44" viewBox="0 0 46 44" width="46" xmlns="http://www.w3.org/2000/svg" xmlns:xlink="http://www.w3.org/1999/xlink"><clipPath id="a"><path d="m0 0h46v44h-46z"/></clipPath><g clip-path="url(#a)" fill="#7e755d"><path d="m11.1815 12.8219c-6.03293 5.7234-11.008378 10.4843-11.069054 10.5875-.2080329.3437-.1386887.7304.182028 1.0484.338053.3352.728116.3867 1.100836.1375.12136-.0773 4.83676-4.5289 10.47969-9.8828 5.6515-5.34531 10.2889-9.72813 10.3149-9.72813s4.7154 4.41719 10.4103 9.82263c5.6949 5.4055 10.4276 9.8485 10.5143 9.8828.5461.2149 1.1529-.1632 1.2309-.7562.0433-.275.0087-.4039-.156-.6188-.1821-.2492-21.8695-20.84839-21.9908-20.88277-.026-.00859-4.9841 4.66641-11.0171 10.38987z"/><path d="m29.1677 5.60313c-.3208.17187-.4768.44687-.4768.825 0 .30078.052.42109.2514.62734l.2514.24922h2.9558 2.9558v2.79301c0 3.0851.026 3.2742.5114 3.5148.3294.1719.5547.1719.8841 0 .5028-.2492.5114-.3523.5114-4.41718v-3.69532h-3.8312c-2.6265.0086-3.892.03438-4.0133.10313z"/><path d="m6.09336 23.925c-.58076.2578-.54609-.3781-.54609 10.3641v9.7109h6.45763 6.4577l.0174-5.9469.026-5.9554h3.6839 3.6839l.026 5.9554.0173 5.9469h6.4577 6.4577v-9.3328-9.3328l-.2947-.2922c-.2081-.2063-.3727-.2922-.5634-.2922-.3554 0-.7195.1891-.8582.4469-.078.1547-.1127 2.157-.13 8.5765l-.0173 8.3789-4.6114.0258-4.6201.0172v-5.9726-5.9727h-5.5475-5.5476v5.9727 5.9726l-4.6113-.0172-4.6201-.0258-.04334-8.9117-.04334-8.9203-.21671-.2148c-.27737-.2664-.65877-.3352-1.01415-.1805z"/></g></svg>