<svg fill="none" height="90" viewBox="0 0 256 90" width="256" xmlns="http://www.w3.org/2000/svg" xmlns:xlink="http://www.w3.org/1999/xlink"><clipPath id="a"><path d="m0 0h256v90h-256z"/></clipPath><g clip-path="url(#a)"><g stroke="#fff" stroke-width="4"><path d="m2 89v-90"/><path d="m254 91v-90"/><path d="m0 88h256"/><path d="m0 2h256"/></g><path d="m120.8 35v-28h3.64v15.76l15-15.76h2l-10.16 10.84 12.48 17.16h-4.16l-10.64-14.68-4.52 4.84v9.84zm31.545-28v28h-3.4v-28zm24.967 18.88h-15.2c0 1.6267.24 2.96.72 4s1.08 1.8533 1.8 2.44 1.493 1 2.32 1.24c.853.2133 1.653.32 2.4.32.666 0 1.266-.0667 1.8-.2.56-.16 1.093-.3733 1.6-.64.506-.2667 1-.6 1.48-1 .506-.4 1.04-.84 1.6-1.32l1.28 1.28c-1.067 1.12-2.32 1.9867-3.76 2.6-1.44.5867-3.014.88-4.72.88-1.76 0-3.294-.2933-4.6-.88-1.28-.6133-2.347-1.4133-3.2-2.4-.827-1.0133-1.454-2.1467-1.88-3.4-.4-1.28-.6-2.5867-.6-3.92 0-1.6.24-3.0267.72-4.28.48-1.28 1.146-2.36 2-3.24.853-.9067 1.853-1.5867 3-2.04 1.146-.48 2.4-.72 3.76-.72 1.28 0 2.493.2133 3.64.64 1.146.4267 2.146 1.0667 3 1.92.88.8533 1.573 1.9333 2.08 3.24.506 1.3067.76 2.8533.76 4.64zm-15.2-1.6h11.72c0-2.5867-.534-4.6133-1.6-6.08-1.04-1.4933-2.507-2.24-4.4-2.24-.987 0-1.84.24-2.56.72-.72.4533-1.32 1.0667-1.8 1.84-.454.7733-.8 1.6667-1.04 2.68-.214.9867-.32 2.0133-.32 3.08zm18.008-9.28h3.52l6.68 16.04h.24l6.48-16.04h1.88l-8.08 20h-2.4zm40.551 10.88h-15.2c0 1.6267.24 2.96.72 4s1.08 1.8533 1.8 2.44 1.493 1 2.32 1.24c.853.2133 1.653.32 2.4.32.667 0 1.267-.0667 1.8-.2.56-.16 1.093-.3733 1.6-.64s1-.6 1.48-1c.507-.4 1.04-.84 1.6-1.32l1.28 1.28c-1.067 1.12-2.32 1.9867-3.76 2.6-1.44.5867-3.013.88-4.72.88-1.76 0-3.293-.2933-4.6-.88-1.28-.6133-2.347-1.4133-3.2-2.4-.827-1.0133-1.453-2.1467-1.88-3.4-.4-1.28-.6-2.5867-.6-3.92 0-1.6.24-3.0267.72-4.28.48-1.28 1.147-2.36 2-3.24.853-.9067 1.853-1.5867 3-2.04 1.147-.48 2.4-.72 3.76-.72 1.28 0 2.493.2133 3.64.64s2.147 1.0667 3 1.92c.88.8533 1.573 1.9333 2.08 3.24s.76 2.8533.76 4.64zm-15.2-1.6h11.72c0-2.5867-.533-4.6133-1.6-6.08-1.04-1.4933-2.507-2.24-4.4-2.24-.987 0-1.84.24-2.56.72-.72.4533-1.32 1.0667-1.8 1.84-.453.7733-.8 1.6667-1.04 2.68-.213.9867-.32 2.0133-.32 3.08zm20.409-9.28h3.4v3.2h.24c.48-1.2 1.093-2.1067 1.84-2.72.746-.6133 1.68-.92 2.8-.92.133 0 .333.0267.6.08.293.0267.6.1067.92.24.346.1067.68.2667 1 .48.346.2133.64.48.88.8l-1.36 2.48c-.24-.3467-.627-.72-1.16-1.12-.507-.4-1.067-.6-1.68-.6-.454 0-.92.1067-1.4.32s-.92.56-1.32 1.04-.734 1.1067-1 1.88c-.24.7467-.36 1.6667-.36 2.76v12.08h-3.4zm-108.68 33h4.32l9.6 23.04h.16l9.32-23.04h2.08l-11.36 28h-2.4zm31.171 8h3.4v20h-3.4zm-.48-6.32c0-.5867.213-1.0933.64-1.52.426-.4267.933-.64 1.52-.64.586 0 1.093.2133 1.52.64.426.4267.64.9333.64 1.52s-.214 1.0933-.64 1.52c-.427.4267-.934.64-1.52.64-.587 0-1.094-.2133-1.52-.64-.427-.4267-.64-.9333-.64-1.52zm15.704-1.68v28h-3.4v-28zm11.407 0v28h-3.4v-28zm14.566 7.56c1.946 0 3.453.28 4.52.84 1.066.5333 1.84 1.24 2.32 2.12.506.88.8 1.8933.88 3.04s.12 2.32.12 3.52v10.92h-3.24v-1.96c-.774.7467-1.76 1.3467-2.96 1.8-1.2.4267-2.4.64-3.6.64-1.147 0-2.16-.2-3.04-.6s-1.614-.92-2.2-1.56c-.587-.64-1.027-1.36-1.32-2.16-.294-.8-.44-1.6133-.44-2.44 0-.8533.16-1.7067.48-2.56s.8-1.6133 1.44-2.28c.64-.6933 1.426-1.2533 2.36-1.68.933-.4267 2-.64 3.2-.64s2.333.24 3.4.72c1.093.4533 1.986 1.1067 2.68 1.96v-1.72c0-2.1867-.334-3.8133-1-4.88-.64-1.0667-1.827-1.6-3.56-1.6-.747 0-1.4.0933-1.96.28s-1.067.4533-1.52.8c-.427.32-.827.7333-1.2 1.24-.374.48-.747 1.0267-1.12 1.64l-2.08-2.08c.373-.4.76-.8 1.16-1.2.426-.4.933-.76 1.52-1.08.613-.32 1.333-.5733 2.16-.76.826-.2133 1.826-.32 3-.32zm4.6 12.52c-.134-.32-.334-.6933-.6-1.12-.24-.4267-.56-.84-.96-1.24s-.88-.7333-1.44-1c-.56-.2933-1.227-.44-2-.44-.774 0-1.48.16-2.12.48-.64.2933-1.187.6933-1.64 1.2-.427.48-.76 1.0533-1 1.72s-.36 1.36-.36 2.08c0 .8533.146 1.6.44 2.24.32.6133.72 1.1467 1.2 1.6.48.4267 1.013.7467 1.6.96.586.2133 1.146.32 1.68.32.506 0 1.013-.0933 1.52-.28.533-.1867 1.026-.44 1.48-.76.48-.3467.906-.7467 1.28-1.2.373-.4533.68-.9467.92-1.48zm23.921 9.6v-4.88h-.16c-.453 1.28-1.24 2.2133-2.36 2.8-1.093.5867-2.386.88-3.88.88-1.36 0-2.6-.24-3.72-.72-1.093-.5067-2.04-1.2133-2.84-2.12-.8-.9333-1.426-2.04-1.88-3.32-.426-1.3067-.64-2.76-.64-4.36 0-1.5733.214-3 .64-4.28.454-1.28 1.08-2.3733 1.88-3.28s1.76-1.6 2.88-2.08c1.12-.5067 2.36-.76 3.72-.76 1.707 0 3.08.32 4.12.96 1.067.6133 1.76 1.48 2.08 2.6h.16v-3.12h3.4v19.64c0 1.3333-.133 2.6133-.4 3.84-.24 1.2533-.706 2.36-1.4 3.32-.693.96-1.666 1.72-2.92 2.28-1.253.5867-2.893.88-4.92.88-1.093 0-2.066-.1467-2.92-.44-.853-.2667-1.586-.6-2.2-1-.613-.3733-1.12-.76-1.52-1.16-.4-.3733-.693-.68-.88-.92l2.2-2c.72 1.2 1.507 2.16 2.36 2.88.88.72 2.027 1.08 3.44 1.08.8 0 1.547-.12 2.24-.36.72-.24 1.334-.6267 1.84-1.16.534-.5333.947-1.2267 1.24-2.08.294-.8533.44-1.8933.44-3.12zm0-10.2v-2.96c0-.9067-.12-1.7867-.36-2.64s-.6-1.6-1.08-2.24c-.453-.6667-1.026-1.1867-1.72-1.56-.693-.4-1.48-.6-2.36-.6-.4 0-.96.0933-1.68.28-.693.16-1.386.5333-2.08 1.12-.666.5867-1.253 1.44-1.76 2.56-.506 1.0933-.76 2.5733-.76 4.44 0 1.76.2 3.2.6 4.32.427 1.12.947 1.9867 1.56 2.6.64.6133 1.32 1.04 2.04 1.28.747.2133 1.44.32 2.08.32.72 0 1.414-.1467 2.08-.44.667-.32 1.254-.7733 1.76-1.36.507-.5867.907-1.3067 1.2-2.16.32-.8533.48-1.84.48-2.96zm27.543-.6h-15.2c0 1.6267.24 2.96.72 4s1.08 1.8533 1.8 2.44 1.493 1 2.32 1.24c.853.2133 1.653.32 2.4.32.667 0 1.267-.0667 1.8-.2.56-.16 1.093-.3733 1.6-.64s1-.6 1.48-1c.507-.4 1.04-.84 1.6-1.32l1.28 1.28c-1.067 1.12-2.32 1.9867-3.76 2.6-1.44.5867-3.013.88-4.72.88-1.76 0-3.293-.2933-4.6-.88-1.28-.6133-2.347-1.4133-3.2-2.4-.827-1.0133-1.453-2.1467-1.88-3.4-.4-1.28-.6-2.5867-.6-3.92 0-1.6.24-3.0267.72-4.28.48-1.28 1.147-2.36 2-3.24.853-.9067 1.853-1.5867 3-2.04 1.147-.48 2.4-.72 3.76-.72 1.28 0 2.493.2133 3.64.64s2.147 1.0667 3 1.92c.88.8533 1.573 1.9333 2.08 3.24s.76 2.8533.76 4.64zm-15.2-1.6h11.72c0-2.5867-.533-4.6133-1.6-6.08-1.04-1.4933-2.507-2.24-4.4-2.24-.987 0-1.84.24-2.56.72-.72.4533-1.32 1.0667-1.8 1.84-.453.7733-.8 1.6667-1.04 2.68-.213.9867-.32 2.0133-.32 3.08z" fill="#fff"/><path d="m11.68 68v-44.8h5.824v25.216l24-25.216h3.2l-16.256 17.344 19.968 27.456h-6.656l-17.024-23.488-7.232 7.744v15.744z" fill="#e08631"/><path d="m52.2325 23.2h6.912l15.36 36.864h.256l14.912-36.864h3.328l-18.176 44.8h-3.84z" fill="#fff"/></g></svg>