<svg fill="none" height="23" viewBox="0 0 25 23" width="25" xmlns="http://www.w3.org/2000/svg"><path d="m20.8125 11.5v-.5h-.5-3.9063c-1.0178 0-1.8437-.8259-1.8437-1.84375v-6.25c0-1.0178.8259-1.84375 1.8437-1.84375h6.25c1.0179 0 1.8438.82595 1.8438 1.84375v11.71875c0 4.0403-3.2722 7.3125-7.3125 7.3125h-.3906c-.3733 0-.6719-.2986-.6719-.6719v-2.3437c0-.3733.2986-.6719.6719-.6719h.3906c1.9998 0 3.625-1.6252 3.625-3.625zm-14.0625 0v-.5h-.5-3.90625c-1.0178 0-1.84375-.8259-1.84375-1.84375v-6.25c0-1.0178.82595-1.84375 1.84375-1.84375h6.25c1.0178 0 1.84375.82595 1.84375 1.84375v11.71875c0 4.0403-3.27224 7.3125-7.3125 7.3125h-.39062c-.37328 0-.67188-.2986-.67188-.6719v-2.3437c0-.3733.2986-.6719.67188-.6719h.39062c1.99977 0 3.625-1.6252 3.625-3.625z" stroke="#e08631"/></svg>