<svg width="35" height="35" viewBox="0 0 35 35" fill="none" xmlns="http://www.w3.org/2000/svg">
<path d="M17.4972 5C10.5879 5.00756 4.99245 10.6147 5.00001 17.524C5.00177 19.6206 5.53095 21.6832 6.53883 23.5217L5.57961 29.4166L11.4745 28.4574C17.5263 31.7769 25.1245 29.5625 28.444 23.5101C31.7635 17.4577 29.5497 9.86064 23.4973 6.54057C21.6584 5.5318 19.5946 5.00201 17.4972 5ZM11.2477 10.6798H14.6544C14.8086 10.6798 14.9565 10.741 15.0655 10.85C15.1745 10.9591 15.2358 11.1069 15.2358 11.2611C15.2167 12.0364 15.347 12.8081 15.6195 13.5342C15.7368 13.7772 15.7626 14.0544 15.6922 14.315C15.6217 14.5755 15.4597 14.8019 15.2358 14.9527L14.044 16.1154C14.5724 17.1473 15.2634 18.0875 16.0904 18.9C16.8963 19.7405 17.8327 20.4452 18.8634 20.9871L20.0261 19.7953C20.6074 19.2139 20.8749 19.2139 21.4446 19.4116C22.1706 19.6841 22.9424 19.8144 23.7176 19.7953C23.8695 19.8024 24.0133 19.8659 24.1209 19.9734C24.2284 20.0809 24.2919 20.2247 24.299 20.3766V23.7833C24.2919 23.9352 24.2284 24.079 24.1209 24.1866C24.0133 24.2941 23.8695 24.3576 23.7176 24.3647C20.2979 24.2157 17.0564 22.798 14.6254 20.3883C12.2118 17.9598 10.7935 14.7167 10.649 11.296C10.6503 11.136 10.7133 10.9826 10.8249 10.8679C10.9364 10.7531 11.0878 10.6857 11.2477 10.6798Z" stroke="#FAF8F0" stroke-width="0.729167" stroke-linecap="round" stroke-linejoin="round"/>
</svg>
